Coordinates
version=1
nRows=19
nColumns=18
inDegrees=yes

Units are S.I. units (second, meters, Newtons, ...)
Angles are in degrees.

endheader
time	pelvis_tilt	pelvis_list	pelvis_rotation	pelvis_tx	pelvis_ty	pelvis_tz	hip_flexion_r	hip_adduction_r	hip_rotation_r	knee_angle_r	ankle_angle_r	hip_flexion_l	hip_adduction_l	hip_rotation_l	knee_angle_l	ankle_angle_l	lumbar_extension
      2.70000000	     -1.16893684	     -0.12816903	     -4.44120561	      0.69630129	      0.84362874	     -0.32226501	     22.55940363	      3.76640230	      0.00000000	     -4.42727725	    -13.14039033	    -22.67714634	      5.95790347	      0.00000000	      1.72212443	     10.43057410	     -5.00000214
      2.71000000	     -0.99705889	     -0.11079885	     -4.43964367	      0.70853259	      0.84218773	     -0.32137841	     21.74309205	      4.21064352	      0.00000000	     -4.23429888	    -12.90215205	    -23.31609364	      5.93030922	      0.00000000	      0.99066675	     10.13574784	     -5.00000214
      2.72000000	     -0.81450366	     -0.09535233	     -4.45395801	      0.72097000	      0.84090384	     -0.32046668	     20.90886346	      4.65188099	      0.00000000	     -4.35453689	    -12.19937373	    -23.83792783	      5.89296820	      0.00000000	      0.02291098	      9.74857182	     -5.00000214
      2.73000000	     -0.62759110	     -0.01447561	     -4.60116336	      0.73358993	      0.83969464	     -0.31964000	     20.19530398	      5.01905026	      0.00000000	     -4.97581254	     -9.85082462	    -24.31417211	      5.98836136	      0.00000000	     -0.99704909	      8.86940324	     -5.00000214
      2.74000000	     -0.45602310	      0.05462382	     -4.71669101	      0.74632217	      0.83870205	     -0.31880834	     19.47605021	      5.34483073	      0.00000000	     -5.70015259	     -7.71143034	    -24.58728374	      6.04325314	      0.00000000	     -2.32609014	      8.14980272	     -5.00000214
      2.75000000	     -0.30067207	      0.16272873	     -4.85639766	      0.75912558	      0.83794096	     -0.31810360	     18.84693743	      5.56802333	      0.00000000	     -6.63068201	     -5.25834268	    -24.69780790	      6.15478777	      0.00000000	     -3.83912669	      7.16088700	     -5.00000214
      2.76000000	     -0.14374937	      0.27306069	     -5.01235156	      0.77194484	      0.83750548	     -0.31742891	     18.35099172	      5.72066232	      0.00000000	     -7.80033546	     -2.77756045	    -24.63531324	      6.26582151	      0.00000000	     -5.60564385	      5.84913190	     -5.00000214
      2.77000000	     -0.03760689	      0.41340697	     -5.13201367	      0.78468250	      0.83736140	     -0.31692010	     18.10790771	      5.75192350	      0.00000000	     -9.31747874	     -0.42749264	    -24.32444381	      6.38687415	      0.00000000	     -7.59134773	      4.18131793	     -5.00000214
      2.78000000	      0.02312565	      0.57528015	     -5.29981291	      0.79720690	      0.83750029	     -0.31651038	     18.18440236	      5.69726333	      0.00000000	    -11.28850397	      1.74975831	    -23.76126685	      6.55210324	      0.00000000	     -9.80108866	      2.15724812	     -5.00000214
      2.79000000	      0.02998296	      0.75116054	     -5.27434145	      0.80951500	      0.83792129	     -0.31638735	     18.46381983	      5.51364021	      0.00000000	    -13.47757935	      3.08468203	    -22.80683680	      6.63401723	      0.00000000	    -12.48000077	      0.43142071	     -5.00000214
      2.80000000	      0.05231833	      0.94883457	     -5.37108096	      0.82185483	      0.83841190	     -0.31621336	     19.02687525	      5.28941315	      0.00000000	    -16.28417082	      5.41166130	    -21.83709514	      6.78386776	      0.00000000	    -15.06253502	     -2.58692948	     -5.00000214
      2.81000000	      0.12437176	      1.12790923	     -5.34975210	      0.83445586	      0.83909050	     -0.31610668	     19.43581690	      5.01464978	      0.00000000	    -18.93951324	      7.74467420	    -20.81801113	      6.85004273	      0.00000000	    -17.70997188	     -6.10254144	     -5.00000214
      2.82000000	      0.15352376	      1.30116092	     -5.21693309	      0.84678696	      0.83963222	     -0.31605180	     19.85334298	      4.71495612	      0.00000000	    -21.49835294	      9.36304899	    -19.48477879	      6.84059046	      0.00000000	    -20.69763121	     -8.87402065	     -5.00000214
      2.83000000	      0.19433928	      1.46035879	     -5.02168009	      0.85910715	      0.84005073	     -0.31595535	     20.07432772	      4.41817237	      0.00000000	    -23.73148824	     10.88605392	    -18.02848522	      6.77298678	      0.00000000	    -23.79740543	    -11.20722747	     -5.00000214
      2.84000000	      0.24095560	      1.55508128	     -4.66895273	      0.87133200	      0.84034856	     -0.31571028	     19.94583724	      4.19307635	      0.00000000	    -25.32382088	     11.68660372	    -16.40344964	      6.53382650	      0.00000000	    -27.09557366	    -12.28402918	     -5.00000214
      2.85000000	      0.29365727	      1.69309416	     -4.43366815	      0.88345299	      0.84039754	     -0.31542041	     19.70109374	      3.95858205	      0.00000000	    -26.74120126	     13.54944842	    -14.77709840	      6.39755603	      0.00000000	    -30.22359112	    -13.69973404	     -5.00000214
      2.86000000	      0.36922797	      1.76750373	     -4.06793303	      0.89551698	      0.84040848	     -0.31497712	     19.01961995	      3.80759099	      0.00000000	    -27.38879492	     14.86193418	    -13.06408279	      6.10539131	      0.00000000	    -33.42625766	    -13.84566941	     -5.00000214
      2.87000000	      0.44304548	      1.81992966	     -3.66822054	      0.90737581	      0.84040331	     -0.31443945	     18.09821680	      3.71346051	      0.00000000	    -27.57310227	     15.78618856	    -11.26907237	      5.76141279	      0.00000000	    -36.57263237	    -13.33193220	     -5.00000214
      2.88000000	      0.53433699	      1.82721953	     -3.22398993	      0.91911458	      0.84042002	     -0.31380403	     16.94602000	      3.70759371	      0.00000000	    -27.37272846	     16.92478747	     -9.46178568	      5.33387467	      0.00000000	    -39.57394138	    -11.81582094	     -5.00000214
